<svg width="410" height="244" fill="none" xmlns="http://www.w3.org/2000/svg"><path d="M2 69.5l158.5 171L408 23" stroke="#F99808" stroke-width="5"/><path d="M2 58.5l158.5 171L408 12" stroke="#F99808" stroke-width="3"/><path d="M106.306 27.794c0 4.422-1.012 7.985-3.035 10.688-2.023 2.703-4.762 4.055-8.218 4.055-3.527 0-6.302-1.119-8.325-3.357v13.992H81.76v-40.23h4.538l.242 3.223c2.023-2.506 4.834-3.76 8.433-3.76 3.49 0 6.248 1.316 8.271 3.948 2.041 2.632 3.062 6.293 3.062 10.984v.457zm-4.969-.564c0-3.277-.698-5.864-2.094-7.762-1.397-1.898-3.313-2.846-5.747-2.846-3.008 0-5.264 1.333-6.768 4.001v13.884c1.486 2.65 3.76 3.975 6.821 3.975 2.381 0 4.27-.94 5.667-2.82 1.414-1.898 2.121-4.709 2.121-8.432zm25.352-9.83a14.896 14.896 0 00-2.444-.188c-3.258 0-5.469 1.388-6.633 4.163V42h-4.968V12.942h4.834l.08 3.357c1.629-2.596 3.939-3.894 6.929-3.894.967 0 1.701.126 2.202.376v4.62zm2.739 9.803c0-2.847.555-5.407 1.665-7.681 1.128-2.274 2.686-4.028 4.673-5.264 2.005-1.235 4.288-1.853 6.848-1.853 3.957 0 7.153 1.37 9.588 4.11 2.452 2.738 3.679 6.382 3.679 10.93v.349c0 2.828-.546 5.37-1.638 7.626-1.075 2.238-2.623 3.984-4.646 5.237-2.006 1.254-4.315 1.88-6.929 1.88-3.939 0-7.135-1.37-9.587-4.109-2.435-2.739-3.653-6.364-3.653-10.876v-.35zm4.995.59c0 3.223.743 5.81 2.229 7.762 1.504 1.951 3.509 2.927 6.016 2.927 2.524 0 4.53-.985 6.016-2.954 1.486-1.987 2.229-4.762 2.229-8.325 0-3.187-.761-5.765-2.283-7.735-1.504-1.987-3.509-2.98-6.016-2.98-2.453 0-4.431.975-5.935 2.927-1.504 1.951-2.256 4.744-2.256 8.379zM181.152 42h-4.968V.75h4.968V42zm6.66-14.797c0-2.847.555-5.407 1.665-7.681 1.128-2.274 2.686-4.028 4.673-5.264 2.005-1.235 4.288-1.853 6.848-1.853 3.957 0 7.153 1.37 9.587 4.11 2.453 2.738 3.68 6.382 3.68 10.93v.349c0 2.828-.546 5.37-1.639 7.626-1.074 2.238-2.622 3.984-4.646 5.237-2.005 1.254-4.314 1.88-6.928 1.88-3.939 0-7.135-1.37-9.588-4.109-2.435-2.739-3.652-6.364-3.652-10.876v-.35zm4.995.59c0 3.223.743 5.81 2.229 7.762 1.504 1.951 3.509 2.927 6.016 2.927 2.524 0 4.529-.985 6.015-2.954 1.486-1.987 2.229-4.762 2.229-8.325 0-3.187-.761-5.765-2.282-7.735-1.504-1.987-3.509-2.98-6.016-2.98-2.453 0-4.431.975-5.935 2.927-1.504 1.951-2.256 4.744-2.256 8.379zm39.343 10.689c1.773 0 3.322-.537 4.646-1.611 1.325-1.075 2.059-2.417 2.203-4.029h4.699c-.089 1.665-.662 3.25-1.719 4.754-1.056 1.504-2.47 2.703-4.243 3.598a12.12 12.12 0 01-5.586 1.343c-3.956 0-7.107-1.316-9.453-3.948-2.327-2.65-3.491-6.266-3.491-10.85v-.832c0-2.829.519-5.344 1.558-7.546 1.038-2.202 2.524-3.912 4.458-5.13 1.951-1.217 4.252-1.826 6.902-1.826 3.258 0 5.961.976 8.11 2.928 2.166 1.951 3.321 4.484 3.464 7.6h-4.699c-.144-1.88-.86-3.42-2.149-4.62-1.271-1.217-2.847-1.826-4.726-1.826-2.525 0-4.485.913-5.882 2.74-1.378 1.808-2.068 4.43-2.068 7.868v.94c0 3.348.69 5.926 2.068 7.735 1.379 1.808 3.348 2.712 5.908 2.712zm15.818-11.28c0-2.846.555-5.406 1.665-7.68 1.128-2.274 2.686-4.028 4.673-5.264 2.005-1.235 4.288-1.853 6.848-1.853 3.957 0 7.153 1.37 9.588 4.11 2.452 2.738 3.679 6.382 3.679 10.93v.349c0 2.828-.546 5.37-1.638 7.626-1.075 2.238-2.623 3.984-4.646 5.237-2.005 1.254-4.315 1.88-6.929 1.88-3.939 0-7.135-1.37-9.587-4.109-2.435-2.739-3.653-6.364-3.653-10.876v-.35zm4.995.591c0 3.223.743 5.81 2.229 7.762 1.504 1.951 3.509 2.927 6.016 2.927 2.524 0 4.53-.985 6.016-2.954 1.486-1.987 2.229-4.762 2.229-8.325 0-3.187-.761-5.765-2.283-7.735-1.504-1.987-3.509-2.98-6.016-2.98-2.453 0-4.431.975-5.935 2.927-1.504 1.951-2.256 4.744-2.256 8.379zM95.86 146.918l15.471-7.175 2.506 2.71-20.66 8.783-1.87-2.022 10.318-19.969 2.506 2.711-8.27 14.962zm13.466 21.785c.165-.436.595-1.064 1.29-1.885-2.421-.049-4.423-.929-6.005-2.64-1.415-1.53-2.147-3.185-2.197-4.965-.032-1.78.617-3.284 1.946-4.512 1.616-1.494 3.434-2.04 5.454-1.639 2.039.403 4.089 1.718 6.148 3.945l2.387 2.581 1.219-1.127c.927-.857 1.407-1.815 1.439-2.873.042-1.068-.436-2.141-1.435-3.222-.875-.946-1.848-1.519-2.918-1.717-1.071-.199-1.945.016-2.624.643l-2.466-2.667c.774-.716 1.772-1.133 2.993-1.251 1.239-.117 2.502.098 3.789.646 1.296.558 2.465 1.4 3.508 2.528 1.654 1.788 2.499 3.604 2.538 5.449.047 1.835-.695 3.497-2.228 4.985l-7.141 6.603c-1.425 1.317-2.39 2.546-2.895 3.688l-.23.212-2.572-2.782zm-2.048-6.273a6.348 6.348 0 002.833 1.77c1.119.348 2.178.371 3.176.069l3.183-2.944-1.922-2.079c-3.006-3.25-5.46-3.996-7.362-2.237-.832.769-1.226 1.647-1.181 2.635.044.988.468 1.916 1.273 2.786zm10.627 15.551l-2.453-2.653 22.027-20.367 2.453 2.653-22.027 20.367zm17.965 3.606c2.38-2.201 4.814-3.405 7.301-3.611 2.496-.216 4.588.589 6.276 2.415 1.68 1.817 2.389 3.83 2.127 6.041l8.088-7.479 2.453 2.653-22.027 20.367-2.254-2.438 1.544-1.667c-2.281.141-4.297-.735-6.047-2.628-1.662-1.797-2.283-3.946-1.862-6.445.429-2.489 1.829-4.83 4.2-7.022l.201-.186zm2.151 2.932c-1.759 1.626-2.799 3.262-3.122 4.908-.322 1.646.109 3.11 1.293 4.391 1.556 1.683 3.447 2.213 5.674 1.59l7.127-6.59c.729-2.146.333-4.041-1.187-5.685-1.202-1.3-2.641-1.85-4.317-1.648-1.676.201-3.498 1.213-5.468 3.034zm8.551 24.467l-2.453-2.653 15.517-14.347 2.453 2.653-15.517 14.347zm16.981-21.021c.43-.398.912-.604 1.447-.62.544-.007 1.055.248 1.532.765.478.516.692 1.045.643 1.587-.049.541-.288 1.011-.719 1.409-.43.398-.912.595-1.446.593-.535-.003-1.041-.262-1.518-.778-.477-.517-.696-1.041-.657-1.574.048-.523.287-.984.718-1.382zM184.989 173.456l1.815 1.943c-.093-2.593.85-4.736 2.829-6.429 3.394-2.903 6.744-2.452 10.048 1.352l9.077 10.613-2.746 2.349-9.089-10.628c-1-1.149-2-1.777-2.998-1.882-.988-.115-2.032.298-3.13 1.237-.891.762-1.47 1.668-1.736 2.719a6.364 6.364 0 00.026 3.216l9.787 11.444-2.746 2.348-13.735-16.06 2.598-2.222zm34.829-1.465c-2.177 1.861-4.558 2.664-7.142 2.407-2.593-.267-4.913-1.598-6.961-3.993l-.432-.504c-1.362-1.594-2.275-3.272-2.738-5.035-.461-1.781-.448-3.489.04-5.122.489-1.652 1.372-3.024 2.648-4.116 2.088-1.785 4.299-2.485 6.633-2.1 2.334.385 4.597 1.859 6.789 4.422l.978 1.143-10.88 9.305c1.393 1.55 2.949 2.438 4.668 2.664 1.72.208 3.263-.272 4.628-1.44.97-.829 1.622-1.729 1.956-2.701a8.13 8.13 0 00.421-3.084l2.795-.128c.423 3.219-.712 5.98-3.403 8.282zm-12.655-14.106c-1.109.947-1.692 2.149-1.75 3.603-.066 1.445.433 2.971 1.499 4.578l8.045-6.88-.177-.208c-1.273-1.328-2.571-2.085-3.896-2.271-1.333-.197-2.573.196-3.721 1.178zm23.761-2.357l-6.571-15.737 2.805-2.399 7.976 20.985-2.092 1.79-19.554-11.084 2.805-2.399 14.631 8.844zm22.29-12.612c-.43-.182-1.041-.636-1.834-1.362-.142 2.417-1.099 4.384-2.87 5.899-1.584 1.354-3.266 2.021-5.047 2.002-1.779-.037-3.257-.743-4.433-2.119-1.43-1.672-1.906-3.51-1.426-5.514.481-2.022 1.874-4.019 4.18-5.99l2.672-2.285-1.079-1.262c-.821-.96-1.76-1.476-2.816-1.55-1.065-.083-2.157.354-3.275 1.31-.979.838-1.589 1.788-1.829 2.85-.24 1.061-.059 1.944.542 2.646l-2.761 2.361c-.686-.801-1.064-1.814-1.135-3.039-.069-1.243.195-2.497.793-3.761.607-1.274 1.494-2.409 2.662-3.408 1.851-1.583 3.698-2.357 5.542-2.324 1.836.023 3.468.829 4.896 2.418l6.321 7.392c1.261 1.474 2.452 2.486 3.573 3.036l.203.237-2.879 2.463zm-6.347 1.804a6.346 6.346 0 001.878-2.763c.391-1.105.455-2.162.192-3.171l-2.818-3.295-2.153 1.841c-3.364 2.877-4.204 5.3-2.52 7.27.736.861 1.598 1.288 2.587 1.282.989-.006 1.933-.394 2.834-1.164z" fill="#F99808"/><path d="M157.062 91.283h-18.486V106.4h21.475v4.6h-27.1V68.344h26.807v4.629h-21.182v13.71h18.486v4.6zm24.463-7.119a16.23 16.23 0 00-2.666-.205c-3.554 0-5.966 1.514-7.236 4.541V111h-5.42V79.3h5.274l.087 3.663c1.778-2.832 4.297-4.248 7.559-4.248 1.055 0 1.856.137 2.402.41v5.04zM192.424 111h-5.42V66h5.42v45zm14.59 0h-5.42V79.3h5.42V111zm-5.86-40.107c0-.88.264-1.621.791-2.227.547-.605 1.348-.908 2.403-.908 1.054 0 1.855.303 2.402.908.547.606.82 1.348.82 2.227 0 .879-.273 1.61-.82 2.197-.547.586-1.348.879-2.402.879-1.055 0-1.856-.293-2.403-.88-.527-.585-.791-1.317-.791-2.196z" fill="#000"/></svg>