<?xml version="1.0" standalone="no"?>
<!DOCTYPE svg PUBLIC "-//W3C//DTD SVG 20010904//EN"
 "http://www.w3.org/TR/2001/REC-SVG-20010904/DTD/svg10.dtd">
<svg version="1.0" xmlns="http://www.w3.org/2000/svg"
 width="1881.000000pt" height="1881.000000pt" viewBox="0 0 1881.000000 1881.000000"
 preserveAspectRatio="xMidYMid meet">
<metadata>
Created by potrace 1.11, written by Peter Selinger 2001-2013
</metadata>
<g transform="translate(0.000000,1881.000000) scale(0.100000,-0.100000)"
fill="#000000" stroke="none">
<path d="M8470 14989 c-74 -39 -145 -77 -156 -84 l-22 -14 0 -1385 c0 -949 3
-1386 10 -1386 6 0 82 37 169 83 l158 82 0 1388 c0 1070 -3 1387 -12 1387 -7
0 -73 -32 -147 -71z"/>
<path d="M18785 14831 c-11 -10 -112 -90 -225 -177 -358 -276 -660 -510 -760
-589 -36 -28 -114 -89 -175 -136 -60 -46 -117 -89 -125 -96 -8 -7 -130 -102
-270 -210 -140 -109 -271 -210 -290 -226 -19 -15 -93 -72 -165 -128 -71 -55
-143 -111 -160 -123 -16 -13 -196 -153 -400 -311 -203 -158 -383 -298 -400
-311 -16 -13 -248 -192 -515 -399 -267 -207 -512 -398 -545 -424 -50 -39 -93
-72 -160 -123 -5 -5 -35 -28 -65 -52 -30 -23 -419 -326 -865 -671 -445 -346
-904 -702 -1020 -792 -115 -90 -223 -174 -239 -186 -26 -20 -281 -217 -351
-272 -16 -13 -86 -67 -155 -120 -69 -53 -138 -108 -155 -121 -16 -13 -88 -69
-160 -124 -71 -55 -143 -112 -160 -125 -16 -13 -48 -37 -70 -54 -22 -17 -44
-34 -50 -39 -5 -4 -111 -86 -235 -181 -124 -96 -254 -197 -289 -225 -36 -28
-77 -60 -92 -71 -31 -23 -1069 -830 -1129 -878 -8 -7 -53 -42 -100 -78 -476
-368 -816 -631 -870 -674 -36 -28 -267 -209 -515 -400 -247 -192 -520 -403
-605 -470 -150 -117 -405 -315 -463 -359 -16 -11 -34 -26 -40 -31 -7 -6 -82
-64 -167 -130 -85 -66 -159 -123 -165 -128 -5 -4 -44 -34 -85 -67 -41 -33 -80
-59 -86 -57 -7 1 -133 153 -280 338 -778 971 -1189 1485 -1194 1489 -3 3 -32
39 -65 80 -33 41 -65 82 -72 90 -21 25 -176 218 -477 595 -158 198 -302 377
-320 399 -45 56 -44 59 16 35 29 -11 64 -25 78 -31 13 -5 35 -7 47 -3 27 6
1145 424 1150 429 5 4 -43 196 -51 203 -5 5 -61 -16 -536 -204 -146 -58 -294
-116 -329 -129 l-63 -24 14 23 c8 12 54 87 103 167 48 80 100 164 114 187 14
22 33 54 42 70 9 15 69 112 132 215 82 134 112 190 103 197 -13 11 -196 101
-205 101 -4 0 -42 -60 -85 -132 -43 -73 -110 -187 -149 -253 -375 -630 -451
-755 -456 -754 -3 0 -165 199 -359 442 -193 243 -362 454 -375 469 -12 14 -50
61 -84 105 -33 43 -69 88 -80 99 -10 12 -29 36 -43 54 -25 32 -264 330 -311
387 -13 17 -37 47 -54 68 -16 21 -52 66 -80 100 -27 34 -62 77 -77 96 -24 30
-730 911 -761 949 -6 9 -48 60 -92 115 -44 55 -82 102 -85 105 -3 3 -75 93
-160 200 -85 107 -157 197 -160 200 -3 3 -77 95 -165 205 -87 110 -164 205
-169 211 -6 6 -211 262 -455 568 -245 306 -449 556 -453 556 -4 0 -8 -161 -8
-357 l0 -358 116 -145 c63 -80 125 -156 137 -170 12 -14 44 -55 72 -90 27 -36
59 -76 71 -90 12 -14 99 -122 193 -240 94 -118 179 -224 189 -235 26 -31 135
-166 157 -196 11 -15 175 -220 365 -455 189 -236 501 -625 693 -864 192 -239
356 -444 365 -455 9 -11 134 -167 277 -345 143 -179 262 -327 265 -330 3 -3
147 -182 320 -399 173 -217 323 -404 332 -415 10 -12 104 -129 210 -261 324
-405 512 -639 523 -651 5 -6 24 -28 40 -50 40 -50 562 -703 583 -729 9 -11 98
-121 197 -245 99 -124 182 -227 185 -230 3 -3 57 -70 120 -150 63 -80 117
-147 120 -150 3 -3 194 -240 424 -527 230 -288 421 -523 425 -523 7 1 50 32
142 105 35 27 440 341 899 698 459 357 850 660 869 675 19 15 57 45 86 67 123
94 490 380 495 385 3 3 41 32 85 65 44 33 89 68 100 77 11 9 209 163 440 342
231 179 461 357 510 396 50 39 189 147 309 240 120 94 233 181 250 194 17 14
159 124 316 246 157 121 299 231 315 244 17 13 127 99 245 190 118 92 229 177
245 190 17 13 127 99 245 191 118 91 222 171 230 178 15 12 77 60 975 757 602
467 704 547 725 563 8 7 137 107 285 222 347 268 364 281 465 360 47 36 99 77
116 90 56 44 462 359 490 380 15 11 32 25 38 30 6 6 49 39 96 75 47 36 94 72
105 82 11 9 202 157 425 330 503 390 776 602 815 632 95 75 788 612 865 671
51 39 97 75 103 80 7 6 30 24 52 40 22 17 42 32 45 36 3 3 129 101 280 218
151 117 284 220 295 229 11 9 47 37 80 62 33 25 68 52 78 60 10 8 27 22 37 30
10 8 75 58 144 110 l125 95 1 293 c0 160 -1 292 -3 292 -1 0 -11 -8 -22 -19z"/>
<path d="M3360 14240 c-167 -43 -313 -157 -411 -321 -36 -61 -76 -156 -85
-204 -2 -11 -8 -41 -12 -66 -12 -64 -12 -2289 0 -2289 6 0 81 37 167 82 l158
81 1 371 c0 204 1 379 1 388 1 13 10 9 39 -18 20 -19 71 -51 112 -71 72 -35
80 -37 190 -39 88 -2 133 2 189 17 190 49 354 193 445 390 67 145 69 159 70
616 2 447 -4 513 -51 631 -66 169 -205 322 -355 392 -128 60 -316 77 -458 40z
m335 -349 c77 -38 135 -101 167 -180 22 -55 23 -65 25 -481 3 -460 0 -496 -52
-586 -130 -223 -498 -211 -613 21 -39 78 -44 141 -44 538 -1 407 4 461 48 548
40 79 138 153 219 166 17 3 32 6 34 8 2 2 37 2 78 0 59 -2 88 -10 138 -34z"/>
<path d="M5017 14244 c-265 -62 -478 -312 -523 -612 -7 -45 -6 -1504 1 -1510
6 -6 299 140 320 160 6 6 10 249 11 671 1 468 4 676 13 710 24 99 75 168 164
220 54 32 113 44 217 46 l55 1 23 58 c13 31 27 64 32 73 12 24 80 188 80 194
0 12 -337 2 -393 -11z"/>
<path d="M5986 14244 c-113 -27 -253 -111 -325 -197 -14 -16 -29 -34 -35 -41
-58 -63 -135 -225 -150 -316 -3 -19 -9 -46 -12 -60 -3 -14 -5 -205 -5 -425 -1
-434 4 -485 57 -616 80 -198 263 -366 459 -420 53 -15 250 -19 321 -7 195 33
398 211 489 428 52 123 60 215 59 625 -1 224 -6 399 -13 443 -36 231 -196 447
-403 546 -114 54 -304 71 -442 40z m299 -339 c22 -9 63 -34 92 -56 59 -44 106
-128 121 -218 13 -70 14 -759 2 -831 -14 -84 -17 -95 -40 -139 -27 -55 -46
-76 -100 -115 -166 -119 -427 -62 -519 112 -41 77 -44 116 -46 517 -1 405 5
498 40 566 42 81 115 142 203 169 69 22 188 19 247 -5z"/>
<path d="M9491 14239 c-227 -65 -404 -245 -479 -490 -31 -102 -34 -148 -34
-559 0 -418 6 -471 58 -601 80 -198 263 -366 459 -420 53 -15 250 -19 322 -7
55 9 155 51 212 87 171 110 297 317 327 536 12 86 8 793 -5 874 -43 275 -248
509 -506 580 -93 26 -263 26 -354 0z m280 -324 c135 -40 214 -127 243 -269 16
-73 19 -786 4 -869 -31 -173 -155 -285 -325 -293 -190 -8 -340 108 -369 286
-4 25 -8 221 -8 435 -2 403 3 466 41 539 62 119 185 188 324 181 37 -2 78 -6
90 -10z"/>
<path d="M11146 14240 c-163 -43 -310 -156 -408 -315 -34 -55 -84 -182 -93
-236 -4 -24 -9 -53 -11 -64 -8 -34 -7 -797 1 -845 13 -88 37 -166 76 -245 22
-44 43 -82 48 -85 4 -3 15 -16 24 -30 66 -96 211 -202 332 -242 59 -19 91 -23
205 -23 162 0 242 20 350 90 180 115 295 295 335 520 7 44 8 225 0 233 -6 6
-297 -139 -319 -159 -5 -5 -10 -23 -11 -41 -17 -245 -289 -390 -521 -277 -54
26 -117 87 -144 139 -39 76 -43 122 -44 525 -2 412 4 486 43 564 88 171 327
230 502 125 61 -37 100 -81 129 -147 26 -59 31 -87 35 -210 2 -60 6 -111 9
-114 3 -3 31 8 63 25 32 17 104 55 161 84 l102 53 0 49 c0 213 -192 489 -410
589 -123 57 -319 72 -454 37z"/>
<path d="M12793 14239 c-155 -44 -270 -126 -375 -269 -64 -87 -120 -232 -134
-349 -15 -129 -7 -800 11 -902 25 -141 132 -319 250 -417 70 -59 122 -88 208
-120 64 -23 87 -26 207 -26 149 0 174 3 262 39 227 92 397 323 434 590 9 66 9
788 0 851 -17 116 -61 229 -125 321 -105 152 -224 238 -391 284 -88 23 -262
23 -347 -2z m282 -324 c80 -21 168 -90 203 -160 45 -90 49 -129 49 -536 1
-212 -4 -410 -9 -440 -22 -124 -81 -208 -183 -258 -176 -87 -393 -22 -477 142
-38 75 -44 153 -43 552 1 209 5 400 9 425 29 175 178 293 356 285 36 -1 79 -6
95 -10z"/>
<path d="M18684 13932 c-61 -48 -125 -98 -144 -112 -18 -14 -40 -32 -50 -40
-10 -8 -70 -55 -135 -105 -64 -49 -156 -121 -203 -158 -48 -38 -100 -79 -117
-92 -16 -12 -226 -175 -465 -361 -239 -187 -447 -348 -462 -359 -38 -29 -1050
-817 -1068 -832 -8 -7 -143 -112 -300 -234 -157 -121 -298 -232 -315 -245 -16
-13 -75 -58 -131 -101 -55 -43 -116 -90 -135 -105 -19 -14 -65 -51 -104 -81
-78 -61 -1663 -1295 -1709 -1330 -32 -24 -493 -384 -541 -421 -16 -13 -167
-130 -335 -261 -168 -130 -320 -248 -339 -263 -19 -15 -91 -71 -160 -125 -69
-54 -139 -108 -156 -121 -16 -13 -97 -76 -180 -141 -82 -64 -197 -153 -255
-198 -58 -45 -121 -94 -140 -109 -19 -14 -132 -102 -251 -195 -119 -92 -230
-178 -246 -191 -16 -12 -171 -133 -344 -268 -392 -305 -286 -223 -904 -704
-291 -226 -539 -419 -550 -428 -11 -9 -38 -30 -60 -46 -22 -17 -42 -32 -45
-35 -3 -4 -43 -35 -90 -71 -47 -36 -92 -70 -100 -77 -8 -7 -76 -60 -150 -117
-305 -236 -396 -307 -411 -320 -9 -8 -52 -41 -95 -74 -84 -65 -419 -325 -444
-345 -12 -10 -555 -432 -831 -647 -61 -47 -234 -182 -276 -214 -24 -18 -25
-18 -38 0 -7 11 -111 141 -232 290 -120 148 -231 287 -248 308 -16 21 -40 51
-53 66 -13 15 -150 185 -304 377 -154 191 -293 364 -309 383 -16 19 -146 181
-289 360 -144 179 -269 334 -278 345 -23 28 -95 118 -104 130 -4 6 -20 26 -36
45 -27 32 -1049 1301 -1110 1379 -15 18 -39 47 -53 65 -15 17 -77 94 -138 171
-61 77 -119 149 -129 160 -10 11 -53 65 -97 120 -44 55 -84 105 -90 111 -5 6
-23 28 -40 50 -16 21 -86 108 -155 193 -69 86 -235 293 -370 461 -135 168
-247 307 -250 310 -3 3 -24 28 -45 55 -22 28 -42 52 -45 55 -3 3 -86 106 -185
230 -99 124 -184 230 -190 237 -13 16 -19 23 -90 113 -33 41 -62 77 -65 80 -3
3 -89 109 -190 235 -278 347 -1047 1302 -1107 1375 -7 8 -52 64 -100 124 l-88
110 -5 -360 c-3 -232 -1 -363 5 -371 6 -6 76 -94 157 -195 413 -515 792 -985
807 -1003 9 -11 52 -65 96 -120 44 -55 82 -102 85 -105 3 -3 68 -84 146 -180
286 -357 558 -696 583 -726 14 -17 33 -40 41 -50 335 -416 522 -648 589 -733
46 -58 87 -108 90 -111 4 -3 69 -84 146 -180 76 -96 142 -177 145 -180 3 -3
59 -72 124 -155 136 -169 141 -176 177 -219 14 -17 135 -168 269 -336 135
-168 247 -307 251 -310 3 -3 21 -25 40 -50 19 -25 44 -56 56 -70 11 -14 50
-61 85 -105 35 -44 138 -172 229 -285 91 -113 268 -333 394 -490 126 -157 232
-287 235 -290 3 -3 30 -36 60 -75 30 -38 68 -86 85 -106 16 -20 52 -64 80 -99
27 -34 54 -68 60 -74 5 -6 90 -112 189 -235 98 -123 186 -233 196 -245 10 -11
71 -86 134 -166 64 -80 122 -152 129 -160 20 -25 506 -629 571 -710 32 -41 64
-81 71 -88 8 -9 27 0 86 45 133 103 343 266 379 295 19 16 40 32 45 36 33 24
281 217 285 222 3 3 21 17 40 30 19 13 37 27 40 30 3 3 329 258 725 565 396
308 727 565 735 572 8 7 53 42 100 78 47 36 92 71 100 78 8 7 125 98 260 202
135 104 252 195 260 202 19 16 146 114 230 179 98 76 793 617 810 631 59 47
527 412 550 428 25 18 327 252 384 297 11 10 26 21 31 26 6 4 71 55 145 112
74 58 142 110 150 117 8 7 170 133 360 280 190 148 370 288 400 311 30 24 70
56 89 70 19 15 100 78 180 140 80 62 160 124 176 137 48 37 1457 1134 1485
1155 14 11 75 58 135 105 61 48 146 114 190 147 44 34 82 65 85 68 3 4 23 20
45 36 78 56 310 239 313 246 2 5 8 8 13 8 5 0 17 8 27 18 10 9 31 26 46 37 16
11 43 32 60 46 17 14 285 223 596 465 311 241 572 444 580 451 8 7 317 246
685 533 369 286 684 532 700 545 17 12 199 154 405 315 206 160 386 300 400
311 14 11 53 41 87 67 l63 47 0 288 c0 158 -3 287 -7 286 -5 0 -58 -39 -119
-87z"/>
<path d="M12800 11828 c-79 -12 -168 -57 -277 -140 -85 -65 -94 -74 -88 -97 8
-29 8 -29 25 -119 7 -34 17 -65 21 -68 5 -3 68 40 141 94 139 103 176 122 240
122 56 0 101 -22 164 -82 82 -77 83 -83 16 -85 -200 -6 -384 -215 -383 -434 1
-196 133 -371 326 -431 48 -15 161 -17 213 -4 74 20 167 73 228 131 30 29 73
99 84 139 l12 45 32 -42 c17 -22 35 -41 41 -41 13 -1 115 195 112 216 -2 20
-430 589 -496 660 -99 108 -255 159 -411 136z m422 -582 c86 -38 137 -124 133
-221 -2 -34 -10 -76 -18 -92 -38 -72 -146 -143 -220 -143 -116 0 -230 115
-231 235 0 68 8 95 44 140 72 90 195 124 292 81z"/>
<path d="M12070 11310 c-119 -26 -131 -30 -125 -39 10 -17 315 -924 312 -928
-2 -2 -15 5 -28 15 -13 10 -116 81 -229 157 -193 130 -392 266 -504 342 -27
19 -54 32 -59 30 -6 -2 -36 -48 -67 -104 l-58 -100 217 -143 c119 -79 371
-246 560 -372 189 -126 349 -227 354 -225 5 1 29 46 52 98 40 91 42 98 30 135
-7 21 -43 134 -80 249 -37 116 -89 278 -115 360 -27 83 -76 237 -110 342 -34
106 -65 194 -68 196 -4 2 -41 -4 -82 -13z"/>
<path d="M5450 11248 c-1 -20 -1 -1260 -1 -1285 l1 -23 500 0 500 0 0 120 0
120 -365 0 -365 0 -1 30 c0 17 -1 86 -1 155 0 69 1 132 1 140 1 13 44 15 321
15 l320 0 0 115 0 115 -320 0 c-298 0 -320 1 -321 18 -1 20 -1 244 0 254 1 4
157 9 349 10 l347 3 2 113 1 112 -484 0 c-380 0 -484 -3 -484 -12z"/>
<path d="M6679 11253 c-1 -11 -1 -1285 0 -1300 1 -10 35 -13 136 -13 l135 0 0
256 0 255 173 -2 c279 -3 292 -14 301 -279 2 -69 10 -149 16 -177 l12 -53 153
0 c122 0 154 3 158 14 3 8 -4 22 -15 33 -33 30 -39 60 -43 223 -5 212 -28 276
-115 330 -22 14 -40 27 -40 30 1 3 20 14 43 26 51 25 98 84 127 161 30 80 25
203 -12 284 -49 107 -136 180 -246 205 -62 15 -781 21 -783 7z m702 -247 c47
-24 70 -65 76 -137 4 -46 1 -67 -16 -103 -36 -73 -61 -80 -293 -84 l-198 -4 0
177 0 177 198 -4 c166 -3 203 -7 233 -22z"/>
<path d="M7990 10600 l0 -660 465 0 465 0 0 120 0 120 -324 0 c-250 0 -325 3
-328 13 -2 6 -4 249 -4 540 l1 527 -137 0 -138 0 0 -660z"/>
<path d="M9089 11218 c-1 -54 -1 -1237 0 -1260 1 -16 14 -18 139 -18 l137 0
-2 652 c-1 359 -2 656 -2 661 -1 4 -62 7 -136 7 l-135 0 -1 -42z"/>
<path d="M10972 10438 c-163 -24 -332 -159 -393 -316 -17 -44 -22 -79 -23
-157 -2 -164 9 -186 237 -485 88 -116 142 -178 183 -208 60 -45 151 -78 239
-86 152 -15 324 64 428 195 38 48 75 121 83 162 2 12 6 33 9 47 10 44 7 147
-5 192 -16 60 -54 135 -94 186 l-35 43 -15 -28 c-8 -15 -34 -66 -59 -112 l-45
-84 23 -49 c63 -136 -36 -299 -204 -337 -54 -12 -131 4 -131 27 0 9 7 42 15
72 22 77 86 322 90 340 2 8 14 56 28 105 101 370 98 343 48 388 -44 40 -122
83 -167 92 -98 20 -141 23 -212 13z m141 -224 c18 -9 33 -18 35 -19 2 -2 -134
-559 -143 -584 -6 -16 -185 214 -215 276 -36 77 -27 155 28 228 72 95 211 141
295 99z"/>
<path d="M9913 9644 c-74 -15 -120 -34 -180 -75 -106 -72 -188 -188 -212 -299
-14 -64 -7 -196 14 -255 9 -27 37 -79 62 -115 71 -104 528 -703 539 -707 5 -2
36 46 67 107 l58 110 -63 83 c-34 45 -66 87 -70 92 -20 25 -78 101 -193 255
-47 63 -93 123 -101 133 -29 36 -80 113 -92 140 -32 73 3 196 71 253 79 66
185 91 258 60 43 -18 108 -86 190 -197 86 -115 396 -526 428 -566 14 -18 29
-33 33 -33 4 0 32 50 63 111 49 97 54 114 43 130 -7 10 -60 80 -118 156 -408
536 -371 491 -435 539 -96 73 -238 103 -362 78z"/>
<path d="M7925 8793 c-63 -16 -106 -81 -100 -152 11 -137 192 -179 264 -61 30
51 16 134 -30 177 -20 18 -92 46 -109 42 -3 -1 -14 -4 -25 -6z"/>
<path d="M8178 8361 l-56 -109 39 -54 c22 -29 48 -64 57 -77 9 -13 22 -28 27
-35 12 -12 93 -119 301 -396 159 -211 149 -198 172 -226 9 -12 51 -67 92 -122
41 -56 78 -98 82 -94 3 4 32 55 62 113 l56 106 -143 189 c-78 104 -205 272
-282 374 -77 102 -142 187 -145 190 -3 3 -23 30 -45 60 -22 30 -44 60 -50 66
-5 6 -28 36 -50 67 -22 31 -44 57 -50 57 -5 0 -36 -49 -67 -109z"/>
<path d="M5560 8410 c-73 -19 -104 -31 -102 -40 2 -8 42 -60 90 -117 142 -167
169 -242 122 -338 -16 -33 -121 -155 -134 -155 -2 0 -3 10 -3 23 4 134 -101
285 -250 358 -65 33 -72 34 -183 34 -114 0 -117 -1 -192 -38 -204 -100 -308
-343 -232 -539 25 -63 77 -142 126 -189 46 -44 128 -89 166 -89 31 0 28 -9
-19 -50 l-42 -36 114 -53 c99 -47 116 -52 133 -41 43 27 603 499 638 538 87
96 127 247 104 391 -15 92 -68 180 -196 327 l-35 41 -105 -27z m-334 -485 c67
-40 124 -135 124 -209 0 -84 -54 -167 -134 -208 -51 -26 -139 -30 -186 -9 -55
25 -116 88 -140 143 -38 88 -15 176 67 252 73 69 183 81 269 31z"/>
<path d="M7335 8327 l-59 -113 109 -145 c60 -79 126 -165 148 -191 23 -29 33
-48 25 -49 -126 -7 -208 -42 -290 -122 -103 -99 -149 -215 -144 -360 4 -126
29 -179 184 -385 176 -234 187 -246 255 -292 72 -49 151 -72 247 -73 152 -2
245 37 366 153 118 113 166 313 114 471 -27 82 -37 96 -354 514 -147 193 -326
430 -399 527 -72 97 -134 177 -137 177 -3 1 -32 -50 -65 -112z m354 -707 c58
-29 78 -53 311 -362 98 -131 117 -209 70 -297 -84 -157 -275 -202 -388 -91
-57 55 -301 385 -324 437 -25 57 -25 109 1 167 31 71 98 130 181 159 36 13
113 6 149 -13z"/>
<path d="M6039 7352 c-333 -279 -626 -524 -651 -545 -24 -20 -53 -44 -64 -52
-18 -13 -10 -18 99 -70 l119 -56 51 43 c29 24 54 45 57 48 3 4 277 233 610
509 333 277 609 508 614 512 5 5 -34 28 -90 54 -54 25 -107 50 -116 55 -10 6
-19 10 -20 9 -2 0 -276 -228 -609 -507z"/>
</g>
</svg>
